<svg width="18" height="18" viewBox="0 0 18 18" fill="none" xmlns="http://www.w3.org/2000/svg">
<path d="M11.0658 0.736694H6.24559C3.96375 0.736694 2.11395 2.58649 2.11395 4.86833V13.1316C2.11395 15.4135 3.96375 17.2633 6.24559 17.2633H11.7544C14.0363 17.2633 15.8861 15.4135 15.8861 13.1316V5.55694M11.0658 0.736694H11.5874C12.1353 0.736694 12.6607 0.954342 13.0481 1.34176L15.281 3.57466C15.6684 3.96208 15.8861 4.48753 15.8861 5.03542V5.55694M11.0658 0.736694V3.49112C11.0658 4.63204 11.9907 5.55694 13.1317 5.55694H15.8861M9.00002 7.62276V9.68858M9.00002 9.68858V11.7544M9.00002 9.68858H6.9342M9.00002 9.68858H11.0658" stroke="white" stroke-width="1.2" stroke-linecap="round"/>
</svg>
