<svg width="23" height="23" viewBox="0 0 23 23" fill="none" xmlns="http://www.w3.org/2000/svg">
<path fill-rule="evenodd" clip-rule="evenodd" d="M5.00737 8.53873C5.00737 4.9124 7.94724 2.00464 11.5191 2.00464C15.0814 2.00464 18.0309 4.92198 18.0309 8.53873V11.3083C18.0309 11.5036 18.0756 11.7968 18.1627 12.1147C18.2487 12.428 18.359 12.7039 18.4575 12.8764L19.556 14.7009C20.4568 16.2022 19.7213 18.1325 18.1069 18.667C13.824 20.0977 9.20351 20.0975 4.92061 18.6666L4.91784 18.6657C4.10508 18.3906 3.48397 17.8178 3.20414 17.062C2.92311 16.3031 3.02089 15.4517 3.47318 14.7L4.57361 12.8724C4.57387 12.872 4.57412 12.8715 4.57438 12.8711C4.67497 12.7019 4.78754 12.4272 4.87496 12.1123C4.96275 11.7961 5.00737 11.5034 5.00737 11.3083V8.53873ZM11.5191 3.57282C8.74684 3.57282 6.53088 5.82089 6.53088 8.53873V11.3083C6.53088 11.6979 6.45091 12.1431 6.33985 12.5432C6.22863 12.9438 6.06843 13.3633 5.87213 13.6926L5.87037 13.6955L4.7684 15.5257C4.76836 15.5258 4.76844 15.5257 4.7684 15.5257C4.54038 15.9048 4.53266 16.2467 4.62775 16.5035C4.72397 16.7634 4.96017 17.0288 5.39239 17.1755C9.36954 18.504 13.6606 18.5038 17.6377 17.175L17.6399 17.1743C18.3437 16.9416 18.6236 16.1321 18.2601 15.5255C18.26 15.5253 18.2602 15.5256 18.2601 15.5255L17.1545 13.6892L17.1508 13.6828C16.9626 13.3567 16.8061 12.9403 16.6965 12.5408C16.5873 12.1423 16.5074 11.6976 16.5074 11.3083V8.53873C16.5074 5.83048 14.2818 3.57282 11.5191 3.57282Z" fill="#1C2434"/>
<path fill-rule="evenodd" clip-rule="evenodd" d="M13.2921 3.06666L13.9985 2.77334C13.6038 1.76597 12.6331 1.07507 11.5192 1.07507C10.4052 1.07507 9.4346 1.76597 9.03982 2.77334C8.93138 3.05006 8.98492 3.36615 9.17794 3.58877C9.37097 3.81138 9.67002 3.90193 9.94941 3.82236C10.9754 3.53016 12.063 3.53016 13.089 3.82236L13.2921 3.06666Z" fill="#1C2434"/>
<path fill-rule="evenodd" clip-rule="evenodd" d="M9.40595 18.264C9.40719 18.8114 9.62475 19.3408 10.0185 19.7353C10.3978 20.1145 10.9371 20.3568 11.5192 20.3568C12.7006 20.3568 13.6324 19.3929 13.6324 18.2659H15.156C15.156 20.3014 13.5003 21.9249 11.5192 21.9249C10.5298 21.9249 9.61249 21.5157 8.95673 20.8599L8.95632 20.8595C8.27337 20.1755 7.88465 19.2442 7.88245 18.2677L9.40595 18.264Z" fill="#1C2434"/>
</svg>
