<svg width="25" height="26" viewBox="0 0 25 26" fill="none" xmlns="http://www.w3.org/2000/svg">
<g clip-path="url(#clip0_607_2)">
<path d="M0.999999 6L1 20C1 22.4853 3.01472 24.5 5.5 24.5L19.5 24.5C21.9853 24.5 24 22.4853 24 20L24 6C24 3.51472 21.9853 1.5 19.5 1.5L5.5 1.5C3.01472 1.5 0.999999 3.51472 0.999999 6Z" fill="#3BC996" stroke="#3BC996"/>
<mask id="mask0_607_2" style="mask-type:luminance" maskUnits="userSpaceOnUse" x="0" y="1" width="25" height="24">
<path d="M0.499999 1L0.5 25L24.5 25L24.5 0.999999L0.499999 1Z" fill="white"/>
</mask>
<g mask="url(#mask0_607_2)">
<path d="M6.6665 15.9167L12.4999 10.0834L18.3332 15.9167" stroke="white" stroke-width="2" stroke-linecap="round" stroke-linejoin="round"/>
</g>
</g>
<defs>
<clipPath id="clip0_607_2">
<rect width="25" height="24" fill="white" transform="translate(0.5 25.5) rotate(-90)"/>
</clipPath>
</defs>
</svg>
