<svg width="32" height="33" viewBox="0 0 32 33" fill="none" xmlns="http://www.w3.org/2000/svg">
<g clip-path="url(#clip0_1474_753)">
<path fill-rule="evenodd" clip-rule="evenodd" d="M29.3286 11.6668H23.6824C21.0548 11.6715 18.9262 13.7469 18.9215 16.3088C18.9179 18.8764 21.0489 20.9611 23.6824 20.9645H29.3334V21.3725C29.3334 25.8514 26.6181 28.5 22.0231 28.5H9.9781C5.38195 28.5 2.66669 25.8514 2.66669 21.3725V11.6171C2.66669 7.13816 5.38195 4.5 9.9781 4.5H22.0184C26.6134 4.5 29.3286 7.13816 29.3286 11.6171V11.6668ZM8.98609 11.6564H16.5061H16.5108H16.5203C17.0833 11.6541 17.5384 11.2069 17.536 10.6569C17.5337 10.108 17.0738 9.66424 16.5108 9.66655H8.98609C8.42669 9.66886 7.97276 10.1114 7.97039 10.658C7.96802 11.2069 8.42313 11.6541 8.98609 11.6564Z" fill="#637381"/>
<path opacity="0.4" d="M21.3832 16.8955C21.6621 18.1638 22.774 19.056 24.0435 19.0328H28.3767C28.9049 19.0328 29.3334 18.5954 29.3334 18.0547V14.6793C29.3322 14.1397 28.9049 13.7011 28.3767 13.7H23.9415C22.4974 13.7046 21.3311 14.9032 21.3334 16.3803C21.3334 16.5532 21.3504 16.7261 21.3832 16.8955Z" fill="#637381"/>
<circle cx="24" cy="16.3667" r="1.33333" fill="#637381"/>
</g>
<defs>
<clipPath id="clip0_1474_753">
<rect width="32" height="32" fill="white" transform="translate(0 0.5)"/>
</clipPath>
</defs>
</svg>
