<svg width="24" height="24" viewBox="0 0 24 24" fill="none" xmlns="http://www.w3.org/2000/svg">
<path d="M12 3.07336C11.1817 3.07336 10.5122 3.74286 10.5122 4.56114C10.5122 5.37941 11.1817 6.04891 12 6.04891C12.8183 6.04891 13.4878 5.37941 13.4878 4.56114C13.4878 3.74286 12.8183 3.07336 12 3.07336ZM12 17.9511C11.1817 17.9511 10.5122 18.6206 10.5122 19.4389C10.5122 20.2571 11.1817 20.9266 12 20.9266C12.8183 20.9266 13.4878 20.2571 13.4878 19.4389C13.4878 18.6206 12.8183 17.9511 12 17.9511ZM12 10.5122C11.1817 10.5122 10.5122 11.1817 10.5122 12C10.5122 12.8183 11.1817 13.4878 12 13.4878C12.8183 13.4878 13.4878 12.8183 13.4878 12C13.4878 11.1817 12.8183 10.5122 12 10.5122Z" fill="#1C2434"/>
</svg>
