<svg width="18" height="18" viewBox="0 0 18 18" fill="none" xmlns="http://www.w3.org/2000/svg">
<g clip-path="url(#clip0_1158_4385)">
<path fill-rule="evenodd" clip-rule="evenodd" d="M8.99987 0.981445C9.36891 0.981445 9.66807 1.28061 9.66807 1.64964V10.0594L11.2002 8.52729C11.4611 8.26634 11.8842 8.26634 12.1451 8.52729C12.4061 8.78823 12.4061 9.21131 12.1451 9.47225L9.47236 12.145C9.21141 12.406 8.78833 12.406 8.52739 12.145L5.85461 9.47225C5.59367 9.21131 5.59367 8.78823 5.85461 8.52729C6.11556 8.26634 6.53864 8.26634 6.79958 8.52729L8.33168 10.0594V1.64964C8.33168 1.28061 8.63084 0.981445 8.99987 0.981445ZM0.981549 7.66338C1.35058 7.66338 1.64974 7.96254 1.64974 8.33158V9.93524C1.64974 11.0689 1.65026 11.879 1.70214 12.514C1.75339 13.1413 1.85139 13.5386 2.01389 13.8575C2.3342 14.4862 2.8453 14.9973 3.47394 15.3176C3.79285 15.4801 4.1902 15.5781 4.81741 15.6293C5.45243 15.6812 6.26251 15.6817 7.39621 15.6817H10.6035C11.7372 15.6817 12.5473 15.6812 13.1823 15.6293C13.8096 15.5781 14.2069 15.4801 14.5258 15.3176C15.1544 14.9973 15.6656 14.4862 15.9859 13.8575C16.1484 13.5386 16.2464 13.1413 16.2976 12.514C16.3495 11.879 16.35 11.0689 16.35 9.93524V8.33158C16.35 7.96254 16.6492 7.66338 17.0182 7.66338C17.3872 7.66338 17.6864 7.96254 17.6864 8.33158V9.96494C17.6864 11.0625 17.6864 11.9271 17.6296 12.6229C17.5716 13.3327 17.4511 13.9255 17.1766 14.4642C16.7282 15.3443 16.0126 16.0599 15.1325 16.5083C14.5938 16.7828 14.001 16.9033 13.2912 16.9613C12.5954 17.0181 11.7308 17.0181 10.6332 17.0181H7.36652C6.26899 17.0181 5.40438 17.0181 4.70859 16.9613C3.99873 16.9033 3.40594 16.7828 2.86724 16.5083C1.98713 16.0599 1.27159 15.3443 0.823156 14.4642C0.548675 13.9255 0.428193 13.3327 0.370195 12.6229C0.313346 11.9271 0.31335 11.0625 0.313355 9.96492L0.313355 8.33158C0.313355 7.96254 0.612515 7.66338 0.981549 7.66338Z" fill="#207355"/>
</g>
<defs>
<clipPath id="clip0_1158_4385">
<rect width="18" height="18" fill="white"/>
</clipPath>
</defs>
</svg>
