<svg width="78" height="55" viewBox="0 0 78 55" fill="none" xmlns="http://www.w3.org/2000/svg">
<path fill-rule="evenodd" clip-rule="evenodd" d="M56.7545 11.5531H49.9951C48.2827 7.69303 44.4374 4.99999 39.9312 4.99999H21.2753C15.2369 4.99999 10.3101 9.90731 10.3101 15.9218V24.2104C10.3101 29.6862 14.3356 34.2045 19.623 35.0124V42.7923C19.623 43.3908 20.374 43.69 20.8246 43.2711L28.6655 36.3889C30.5882 39.5607 34.073 41.6852 38.0686 41.6852H47.8922L57.1751 49.8242C57.6257 50.2132 58.3767 49.9139 58.3767 49.3454V41.5655C63.634 40.7576 67.6897 36.2393 67.6897 30.7634V22.4748C67.7197 16.4604 62.7929 11.5531 56.7545 11.5531ZM29.3264 30.3445V22.7741C29.3264 20.6196 30.0775 18.6447 31.3392 17.0888L32.6911 27.8609L29.3565 31.1524C29.3264 30.913 29.3264 30.6437 29.3264 30.3445ZM40.7423 19.9015L40.4118 13.7973H46.9008L40.7423 19.9015ZM37.678 13.8272L38.1587 22.4449L35.0944 25.497L33.8026 15.0241C34.9743 14.3359 36.2661 13.9169 37.678 13.8272ZM34.6138 29.8059L45.1284 30.9729C43.6263 32.1099 41.7337 32.7982 39.6908 32.7982H31.6096L34.6138 29.8059ZM37.0472 27.3522L40.0814 24.33L48.6432 24.5993C48.5231 26.0356 48.0424 27.3822 47.2914 28.5491V28.4594L37.0472 27.3522ZM48.7033 16.221V21.9063L42.725 21.7268L48.7033 15.8021V16.221ZM65.046 30.3445C65.046 35.3117 61.0204 39.3213 56.0335 39.3213V44.3483C56.0335 44.7373 55.5829 44.9468 55.2825 44.6775L49.6046 39.3512H38.3389C35.1245 39.3512 32.3006 37.6756 30.7084 35.1621H39.9312C45.9996 35.1621 50.8964 30.2547 50.8964 24.2403V15.9218C50.8964 15.2036 50.8363 14.4855 50.6861 13.7973H56.0335C61.0204 13.7973 65.046 17.8069 65.046 22.7741V30.3445Z" fill="#3BC996"/>
</svg>
