<svg width="18" height="19" viewBox="0 0 18 19" fill="none" xmlns="http://www.w3.org/2000/svg">
<g clip-path="url(#clip0_1256_5969)">
<path d="M9.00001 8.29062C11.0813 8.29062 12.7688 6.65937 12.7688 4.63437C12.7688 2.60937 11.0813 0.978119 9.00001 0.978119C6.91876 0.978119 5.23126 2.60937 5.23126 4.63437C5.23126 6.65937 6.91876 8.29062 9.00001 8.29062ZM9.00001 2.27187C10.3781 2.27187 11.5031 3.34062 11.5031 4.66249C11.5031 5.98437 10.3781 7.05312 9.00001 7.05312C7.62189 7.05312 6.49689 5.98437 6.49689 4.66249C6.49689 3.34062 7.62189 2.27187 9.00001 2.27187Z" fill="#DEE4EE"/>
<path d="M10.8281 9.55624H7.17189C4.16251 9.55624 1.71564 12.0312 1.71564 15.0406V17.375C1.71564 17.7125 1.99689 18.0219 2.36251 18.0219C2.72814 18.0219 3.00939 17.7406 3.00939 17.375V15.0406C3.00939 12.7344 4.89376 10.8219 7.22814 10.8219H10.8563C13.1625 10.8219 15.075 12.7062 15.075 15.0406V17.375C15.075 17.7125 15.3563 18.0219 15.7219 18.0219C16.0875 18.0219 16.3688 17.7406 16.3688 17.375V15.0406C16.2844 12.0312 13.8375 9.55624 10.8281 9.55624Z" fill="#DEE4EE"/>
</g>
<defs>
<clipPath id="clip0_1256_5969">
<rect width="18" height="18" fill="white" transform="translate(0 0.5)"/>
</clipPath>
</defs>
</svg>
