<svg width="18" height="19" viewBox="0 0 18 19" fill="none" xmlns="http://www.w3.org/2000/svg">
<g clip-path="url(#clip0_1260_3770)">
<path d="M15.8344 2.94687C15.8344 1.87812 14.9625 0.978125 13.8656 0.978125H4.1344C3.06565 0.978125 2.16565 1.85 2.16565 2.94687V17.0656C2.16565 17.2906 2.30627 17.5156 2.50315 17.6281C2.70002 17.7406 2.95315 17.7125 3.15002 17.6L4.55627 16.6719L6.44065 17.9094C6.66565 18.05 6.91877 18.05 7.14377 17.9094L9.00002 16.6719L10.8563 17.9094C10.9688 17.9937 11.0813 18.0219 11.1938 18.0219C11.3063 18.0219 11.4469 17.9937 11.5313 17.9094L13.3875 16.6719L14.7938 17.6281C14.9906 17.7687 15.2438 17.7687 15.4406 17.6562C15.6375 17.5437 15.7781 17.3187 15.7781 17.0938L15.8344 2.94687ZM14.0344 15.5469C13.6688 15.2937 13.1906 15.2937 12.825 15.5469L11.2219 16.6156L9.61877 15.5469C9.4219 15.4344 9.22502 15.35 9.00002 15.35C8.80315 15.35 8.57815 15.4062 8.4094 15.5469L6.80627 16.6156L5.20315 15.5469C4.83752 15.2937 4.3594 15.2937 3.99377 15.5469L3.4594 15.8844V2.94687C3.4594 2.55312 3.76877 2.24375 4.16252 2.24375H13.9219C14.3156 2.24375 14.625 2.55312 14.625 2.94687V15.8844L14.0344 15.5469Z" fill="#DEE4EE"/>
<path d="M7.9313 4.24062H5.51255C5.17505 4.24062 4.8938 4.52187 4.8938 4.85937C4.8938 5.19687 5.17505 5.47812 5.51255 5.47812H7.9313C8.2688 5.47812 8.55005 5.19687 8.55005 4.85937C8.55005 4.52187 8.2688 4.24062 7.9313 4.24062Z" fill="#DEE4EE"/>
<path d="M12.3469 4.24062H11.6719C11.3344 4.24062 11.0532 4.52187 11.0532 4.85937C11.0532 5.19687 11.3344 5.47812 11.6719 5.47812H12.3469C12.6844 5.47812 12.9657 5.19687 12.9657 4.85937C12.9657 4.52187 12.6844 4.24062 12.3469 4.24062Z" fill="#DEE4EE"/>
<path d="M5.51255 9.19062H7.05942C7.39692 9.19062 7.67817 8.90938 7.67817 8.57188C7.67817 8.23438 7.39692 7.95312 7.05942 7.95312H5.51255C5.17505 7.95312 4.8938 8.23438 4.8938 8.57188C4.8938 8.90938 5.14692 9.19062 5.51255 9.19062Z" fill="#DEE4EE"/>
<path d="M12.3469 7.925H11.6719C11.3344 7.925 11.0532 8.20625 11.0532 8.54375C11.0532 8.88125 11.3344 9.1625 11.6719 9.1625H12.3469C12.6844 9.1625 12.9657 8.88125 12.9657 8.54375C12.9657 8.20625 12.6844 7.925 12.3469 7.925Z" fill="#DEE4EE"/>
<path d="M7.9313 11.5812H5.51255C5.17505 11.5812 4.8938 11.8625 4.8938 12.2C4.8938 12.5375 5.17505 12.8187 5.51255 12.8187H7.9313C8.2688 12.8187 8.55005 12.5375 8.55005 12.2C8.55005 11.8625 8.2688 11.5812 7.9313 11.5812Z" fill="#DEE4EE"/>
<path d="M12.3469 11.5812H11.6719C11.3344 11.5812 11.0532 11.8625 11.0532 12.2C11.0532 12.5375 11.3344 12.8187 11.6719 12.8187H12.3469C12.6844 12.8187 12.9657 12.5375 12.9657 12.2C12.9657 11.8625 12.6844 11.5812 12.3469 11.5812Z" fill="#DEE4EE"/>
</g>
<defs>
<clipPath id="clip0_1260_3770">
<rect width="18" height="18" fill="white" transform="translate(0 0.5)"/>
</clipPath>
</defs>
</svg>
