<svg width="18" height="19" viewBox="0 0 18 19" fill="none" xmlns="http://www.w3.org/2000/svg">
<path d="M16.5 13.625H11.25" stroke="#DEE4EE" stroke-width="1.2" stroke-miterlimit="10" stroke-linecap="round" stroke-linejoin="round"/>
<path d="M3.75 13.625H1.5" stroke="#DEE4EE" stroke-width="1.2" stroke-miterlimit="10" stroke-linecap="round" stroke-linejoin="round"/>
<path d="M16.5 5.375H14.25" stroke="#DEE4EE" stroke-width="1.2" stroke-miterlimit="10" stroke-linecap="round" stroke-linejoin="round"/>
<path d="M6.75 5.375H1.5" stroke="#DEE4EE" stroke-width="1.2" stroke-miterlimit="10" stroke-linecap="round" stroke-linejoin="round"/>
<path d="M5.25 11.375H9.75C10.575 11.375 11.25 11.75 11.25 12.875V14.375C11.25 15.5 10.575 15.875 9.75 15.875H5.25C4.425 15.875 3.75 15.5 3.75 14.375V12.875C3.75 11.75 4.425 11.375 5.25 11.375Z" stroke="#DEE4EE" stroke-width="1.2" stroke-miterlimit="10" stroke-linecap="round" stroke-linejoin="round"/>
<path d="M8.25 3.125H12.75C13.575 3.125 14.25 3.5 14.25 4.625V6.125C14.25 7.25 13.575 7.625 12.75 7.625H8.25C7.425 7.625 6.75 7.25 6.75 6.125V4.625C6.75 3.5 7.425 3.125 8.25 3.125Z" stroke="#DEE4EE" stroke-width="1.2" stroke-miterlimit="10" stroke-linecap="round" stroke-linejoin="round"/>
</svg>
