<svg width="18" height="19" viewBox="0 0 18 19" fill="none" xmlns="http://www.w3.org/2000/svg">
<path d="M15.75 1.00625H2.24998C1.29373 1.00625 0.506226 1.79375 0.506226 2.75V7.98125C0.506226 8.9375 1.29373 9.725 2.24998 9.725H15.75C16.7062 9.725 17.4937 8.9375 17.4937 7.98125V2.75C17.4937 1.79375 16.7062 1.00625 15.75 1.00625ZM16.2562 7.98125C16.2562 8.2625 16.0312 8.4875 15.75 8.4875H2.24998C1.96873 8.4875 1.74373 8.2625 1.74373 7.98125V2.75C1.74373 2.46875 1.96873 2.24375 2.24998 2.24375H15.75C16.0312 2.24375 16.2562 2.46875 16.2562 2.75V7.98125Z" fill="#DEE4EE"/>
<path d="M6.13123 11.4125H2.24998C1.29373 11.4125 0.506226 12.2 0.506226 13.1562V16.25C0.506226 17.2062 1.29373 17.9937 2.24998 17.9937H6.13123C7.08748 17.9937 7.87498 17.2062 7.87498 16.25V13.1562C7.9031 12.2 7.1156 11.4125 6.13123 11.4125ZM6.63748 16.25C6.63748 16.5312 6.41248 16.7562 6.13123 16.7562H2.24998C1.96873 16.7562 1.74373 16.5312 1.74373 16.25V13.1562C1.74373 12.875 1.96873 12.65 2.24998 12.65H6.13123C6.41248 12.65 6.63748 12.875 6.63748 13.1562V16.25Z" fill="#DEE4EE"/>
<path d="M15.75 11.4125H11.8688C10.9125 11.4125 10.125 12.2 10.125 13.1562V16.25C10.125 17.2062 10.9125 17.9937 11.8688 17.9937H15.75C16.7063 17.9937 17.4938 17.2062 17.4938 16.25V13.1562C17.4938 12.2 16.7063 11.4125 15.75 11.4125ZM16.2562 16.25C16.2562 16.5312 16.0312 16.7562 15.75 16.7562H11.8688C11.5875 16.7562 11.3625 16.5312 11.3625 16.25V13.1562C11.3625 12.875 11.5875 12.65 11.8688 12.65H15.75C16.0312 12.65 16.2562 12.875 16.2562 13.1562V16.25Z" fill="#DEE4EE"/>
</svg>
