<svg width="18" height="19" viewBox="0 0 18 19" fill="none" xmlns="http://www.w3.org/2000/svg">
<path d="M3.4594 1.48438H1.68752C1.04065 1.48438 0.478149 2.01875 0.478149 2.69375V4.46563C0.478149 5.1125 1.01252 5.675 1.68752 5.675H3.4594C4.10627 5.675 4.66877 5.14063 4.66877 4.46563V2.66562C4.64065 2.01875 4.10627 1.48438 3.4594 1.48438ZM3.37502 4.38125H1.7719V2.75H3.37502V4.38125Z" fill="#DEE4EE"/>
<path d="M7.22817 4.2125H16.875C17.2125 4.2125 17.5219 3.93125 17.5219 3.56562C17.5219 3.2 17.2407 2.91875 16.875 2.91875H7.22817C6.89067 2.91875 6.5813 3.2 6.5813 3.56562C6.5813 3.93125 6.89067 4.2125 7.22817 4.2125Z" fill="#DEE4EE"/>
<path d="M3.4594 7.25H1.68752C1.04065 7.25 0.478149 7.78437 0.478149 8.45937V10.2312C0.478149 10.8781 1.01252 11.4406 1.68752 11.4406H3.4594C4.10627 11.4406 4.66877 10.9062 4.66877 10.2312V8.45937C4.64065 7.78437 4.10627 7.25 3.4594 7.25ZM3.37502 10.1469H1.7719V8.51562H3.37502V10.1469Z" fill="#DEE4EE"/>
<path d="M16.875 8.7125H7.22817C6.89067 8.7125 6.5813 8.99375 6.5813 9.35938C6.5813 9.725 6.86255 9.97813 7.22817 9.97813H16.875C17.2125 9.97813 17.5219 9.69688 17.5219 9.35938C17.5219 9.02188 17.2125 8.7125 16.875 8.7125Z" fill="#DEE4EE"/>
<path d="M3.4594 13.3531H1.68752C1.04065 13.3531 0.478149 13.8875 0.478149 14.5625V16.3344C0.478149 16.9813 1.01252 17.5438 1.68752 17.5438H3.4594C4.10627 17.5438 4.66877 17.0094 4.66877 16.3344V14.5625C4.64065 13.8875 4.10627 13.3531 3.4594 13.3531ZM3.37502 16.25H1.7719V14.6188H3.37502V16.25Z" fill="#DEE4EE"/>
<path d="M16.875 14.7875H7.22817C6.89067 14.7875 6.5813 15.0687 6.5813 15.4344C6.5813 15.8 6.86255 16.0812 7.22817 16.0812H16.875C17.2125 16.0812 17.5219 15.8 17.5219 15.4344C17.5219 15.0687 17.2125 14.7875 16.875 14.7875Z" fill="#DEE4EE"/>
</svg>
