<svg width="34" height="34" viewBox="0 0 34 34" fill="none" xmlns="http://www.w3.org/2000/svg">
<g clip-path="url(#clip0_1474_1060)">
<path d="M16.932 19.8866C12.332 19.8866 8.45078 20.6383 8.45078 23.5393C8.45078 26.4414 12.3571 27.1667 16.932 27.1667C21.532 27.1667 25.4133 26.415 25.4133 23.514C25.4133 20.6118 21.5069 19.8866 16.932 19.8866Z" fill="#637381"/>
<path opacity="0.4" d="M16.932 17.1227C20.0468 17.1227 22.5444 14.6108 22.5444 11.4781C22.5444 8.34412 20.0468 5.83337 16.932 5.83337C13.8172 5.83337 11.3197 8.34412 11.3197 11.4781C11.3197 14.6108 13.8172 17.1227 16.932 17.1227Z" fill="#637381"/>
<path opacity="0.4" d="M29.1173 12.7924C29.9231 9.62247 27.5605 6.77551 24.5519 6.77551C24.2248 6.77551 23.912 6.81153 23.6064 6.87277C23.5658 6.88238 23.5204 6.90279 23.4965 6.93881C23.4691 6.98444 23.4894 7.04568 23.5192 7.0853C24.423 8.36049 24.9423 9.91305 24.9423 11.5797C24.9423 13.1767 24.466 14.6656 23.6303 15.9011C23.5443 16.0284 23.6207 16.2001 23.7723 16.2265C23.9824 16.2638 24.1973 16.283 24.417 16.289C26.6078 16.3466 28.5741 14.9285 29.1173 12.7924Z" fill="#637381"/>
<path d="M31.4124 20.256C31.0112 19.3963 30.043 18.8067 28.5709 18.5173C27.8761 18.3468 25.9958 18.1067 24.2468 18.1391C24.2205 18.1427 24.2062 18.1607 24.2038 18.1727C24.2002 18.1895 24.2074 18.2183 24.242 18.2363C25.0502 18.6386 28.1746 20.3881 27.7818 24.0779C27.7651 24.2376 27.8928 24.3757 28.0516 24.3517C28.8205 24.2412 30.7987 23.8138 31.4124 22.4822C31.7514 21.7785 31.7514 20.9608 31.4124 20.256Z" fill="#637381"/>
<path opacity="0.4" d="M10.3931 6.87314C10.0887 6.8107 9.77467 6.77588 9.44755 6.77588C6.439 6.77588 4.07633 9.62284 4.88338 12.7928C5.4254 14.9289 7.3917 16.347 9.58246 16.2894C9.80213 16.2833 10.0182 16.2629 10.2271 16.2269C10.3788 16.2005 10.4552 16.0288 10.3692 15.9015C9.53351 14.6648 9.05715 13.177 9.05715 11.58C9.05715 9.91222 9.57768 8.35966 10.4814 7.08567C10.5101 7.04605 10.5316 6.98481 10.5029 6.93918C10.4791 6.90196 10.4349 6.88274 10.3931 6.87314Z" fill="#637381"/>
<path d="M5.42874 18.5169C3.95669 18.8063 2.98966 19.3959 2.58852 20.2556C2.24826 20.9604 2.24826 21.7781 2.58852 22.483C3.20217 23.8134 5.18041 24.2421 5.94926 24.3513C6.10805 24.3754 6.2346 24.2385 6.21788 24.0776C5.8251 20.3889 8.94946 18.6394 9.7589 18.2372C9.79233 18.2179 9.79949 18.1903 9.79591 18.1723C9.79353 18.1603 9.78039 18.1423 9.75413 18.1399C8.00391 18.1063 6.12476 18.3464 5.42874 18.5169Z" fill="#637381"/>
</g>
<defs>
<clipPath id="clip0_1474_1060">
<rect width="32.8417" height="32.8417" fill="white" transform="translate(0.526367 0.224243)"/>
</clipPath>
</defs>
</svg>
