<svg width="16" height="16" viewBox="0 0 16 16" fill="none" xmlns="http://www.w3.org/2000/svg">
<path d="M11.8711 13.3776C11.8138 13.4473 11.7417 13.5034 11.6601 13.5419C11.5785 13.5803 11.4893 13.6002 11.3991 13.6C11.3206 13.6005 11.2428 13.5851 11.1704 13.5549C11.098 13.5247 11.0323 13.4802 10.9775 13.424L8.57428 11.0176C8.46192 10.9051 8.39881 10.7526 8.39881 10.5936C8.39881 10.4346 8.46192 10.2821 8.57428 10.1696C8.62988 10.1138 8.69596 10.0695 8.76872 10.0393C8.84148 10.0091 8.91949 9.9935 8.99828 9.9935C9.07707 9.9935 9.15509 10.0091 9.22785 10.0393C9.30061 10.0695 9.36668 10.1138 9.42228 10.1696L10.7991 11.5552V3.00003C10.7991 2.8409 10.8623 2.68829 10.9748 2.57577C11.0873 2.46325 11.24 2.40003 11.3991 2.40003C11.5582 2.40003 11.7108 2.46325 11.8233 2.57577C11.9359 2.68829 11.9991 2.8409 11.9991 3.00003V11.5472L13.3767 10.1728C13.4323 10.1171 13.4983 10.0729 13.571 10.0428C13.6437 10.0126 13.7216 9.9971 13.8003 9.9971C13.879 9.9971 13.9569 10.0126 14.0296 10.0428C14.1023 10.0729 14.1683 10.1171 14.2239 10.1728C14.3362 10.2853 14.3994 10.4378 14.3994 10.5968C14.3994 10.7558 14.3362 10.9083 14.2239 11.0208L11.8703 13.3776H11.8711ZM5.07108 2.62243C5.01377 2.55274 4.9417 2.49664 4.86008 2.45818C4.77846 2.41972 4.68931 2.39986 4.59908 2.40003C4.52059 2.39958 4.44282 2.41492 4.37038 2.44516C4.29795 2.4754 4.23235 2.51991 4.17748 2.57603L1.77508 4.98243C1.66272 5.09493 1.59961 5.24743 1.59961 5.40643C1.59961 5.56543 1.66272 5.71793 1.77508 5.83043C1.83068 5.88626 1.89676 5.93056 1.96952 5.96078C2.04228 5.99101 2.12029 6.00657 2.19908 6.00657C2.27787 6.00657 2.35589 5.99101 2.42865 5.96078C2.50141 5.93056 2.56748 5.88626 2.62308 5.83043L3.99908 4.44563V13C3.99908 13.1592 4.0623 13.3118 4.17482 13.4243C4.28734 13.5368 4.43995 13.6 4.59908 13.6C4.75821 13.6 4.91082 13.5368 5.02335 13.4243C5.13587 13.3118 5.19908 13.1592 5.19908 13V4.45283L6.57668 5.82723C6.63227 5.88294 6.69829 5.92714 6.77098 5.95729C6.84367 5.98745 6.92159 6.00297 7.00028 6.00297C7.07898 6.00297 7.1569 5.98745 7.22958 5.95729C7.30227 5.92714 7.3683 5.88294 7.42388 5.82723C7.53624 5.71473 7.59935 5.56224 7.59935 5.40323C7.59935 5.24423 7.53624 5.09173 7.42388 4.97923L5.07028 2.62163L5.07108 2.62243Z" fill="black"/>
</svg>
