<svg width="84" height="24" viewBox="0 0 84 24" fill="none" xmlns="http://www.w3.org/2000/svg">
<path d="M5.56717 17.5C4.8265 17.5 4.1374 17.3617 3.49986 17.0852C2.87169 16.8086 2.31853 16.4272 1.84038 15.9408C1.3716 15.445 1.00595 14.8632 0.743437 14.1957C0.480921 13.5282 0.349663 12.7939 0.349663 11.9928C0.349663 11.2013 0.476233 10.4718 0.729374 9.80429C0.99189 9.12722 1.35754 8.54551 1.82632 8.05917C2.29509 7.56329 2.84357 7.18184 3.47173 6.91482C4.09989 6.63827 4.789 6.5 5.53904 6.5C6.27972 6.5 6.94069 6.62874 7.52198 6.88622C8.11264 7.14369 8.60954 7.48223 9.01269 7.90182C9.41584 8.31188 9.70649 8.76008 9.88462 9.24642L8.40797 9.97594C8.19233 9.39423 7.83606 8.92696 7.33916 8.57412C6.84225 8.21175 6.24221 8.03056 5.53904 8.03056C4.84525 8.03056 4.23115 8.19744 3.69674 8.53121C3.16234 8.86498 2.74512 9.32748 2.4451 9.91873C2.15446 10.51 2.00914 11.2013 2.00914 11.9928C2.00914 12.7844 2.15915 13.4805 2.45917 14.0813C2.76856 14.6725 3.19046 15.135 3.72487 15.4688C4.25928 15.793 4.87338 15.9551 5.56717 15.9551C6.14846 15.9551 6.67818 15.8359 7.15633 15.5975C7.64386 15.3496 8.03295 15.0063 8.32359 14.5676C8.61423 14.1194 8.75955 13.5997 8.75955 13.0085V12.2789L9.50491 12.9655H5.53904V11.5351H10.405V12.5364C10.405 13.3184 10.2737 14.0193 10.0112 14.6391C9.74868 15.2495 9.39241 15.7692 8.94238 16.1983C8.49235 16.6274 7.97669 16.9517 7.39541 17.171C6.81412 17.3903 6.20471 17.5 5.56717 17.5Z" fill="black"/>
<path d="M12.0993 17.3283V6.67165H15.9104C16.6136 6.67165 17.2324 6.80516 17.7668 7.07217C18.3012 7.32965 18.7184 7.7111 19.0184 8.21651C19.3278 8.7124 19.4825 9.30841 19.4825 10.0046C19.4825 10.7388 19.2997 11.3682 18.9341 11.8927C18.5778 12.4172 18.095 12.7987 17.4855 13.0371L19.9044 17.3283H18.02L15.4464 12.6795L16.5292 13.3231H13.7588V17.3283H12.0993ZM13.7588 11.8212H15.9386C16.323 11.8212 16.6558 11.7449 16.9371 11.5923C17.2183 11.4397 17.434 11.23 17.584 10.9629C17.7434 10.6864 17.8231 10.3622 17.8231 9.99025C17.8231 9.61834 17.7434 9.29887 17.584 9.03186C17.434 8.75531 17.2183 8.54551 16.9371 8.40247C16.6558 8.24989 16.323 8.1736 15.9386 8.1736H13.7588V11.8212Z" fill="black"/>
<path d="M21.3009 17.3283V6.67165H28.206V8.1736H22.9604V11.2347H27.9247V12.7367H22.9604V15.8264H28.206V17.3283H21.3009Z" fill="black"/>
<path d="M29.7471 17.3283V6.67165H36.6523V8.1736H31.4066V11.2347H36.371V12.7367H31.4066V15.8264H36.6523V17.3283H29.7471Z" fill="black"/>
<path d="M38.1934 17.3283V6.67165H39.5294L45.4079 14.9252L44.7751 15.0254V6.67165H46.4205V17.3283H45.0845L39.2482 9.01756L39.8529 8.90312V17.3283H38.1934Z" fill="black"/>
<path d="M5.54251 11.5371H11.3367V12.9659H5.54251V11.5371Z" fill="black"/>
<path d="M53.205 17.3283V8.17358H50.4205V6.67163H57.5928V8.17358H54.8504V17.3283H53.205Z" fill="#3BC996"/>
<path d="M57.2049 17.3283L60.8895 6.67163H62.9428L66.6274 17.3283H64.8554L64.0538 14.9395H59.7926L58.9769 17.3283H57.2049ZM60.2708 13.4376H63.5475L61.6912 7.85889H62.1553L60.2708 13.4376Z" fill="#3BC996"/>
<path d="M67.8704 17.3283V6.67163H69.5298V15.8264H74.0582V17.3283H67.8704Z" fill="#3BC996"/>
<path d="M75.4514 17.3283V6.67163H77.1109V12.4506L76.6749 12.2789L81.4143 6.67163H83.4816L79.2907 11.6638L79.3751 10.4623L83.6503 17.3283H81.6955L78.6297 12.4506L77.1109 14.2529V17.3283H75.4514Z" fill="#3BC996"/>
</svg>
