<svg width="16" height="17" viewBox="0 0 16 17" fill="none" xmlns="http://www.w3.org/2000/svg">
<path d="M7.99998 3.44998C8.08887 3.44998 8.17221 3.46376 8.24998 3.49131C8.32776 3.51887 8.39998 3.5662 8.46665 3.63331L12.8667 8.03331C13 8.16665 13.0667 8.32487 13.0667 8.50798C13.0667 8.69109 13 8.84954 12.8667 8.98331C12.7333 9.11665 12.5778 9.18331 12.4 9.18331C12.2222 9.18331 12.0667 9.11665 11.9333 8.98331L8.66665 5.71665L8.66665 13.1833C8.66665 13.3722 8.60265 13.5278 8.47465 13.65C8.34665 13.7722 8.18843 13.8333 7.99998 13.8333C7.81109 13.8333 7.65265 13.7693 7.52465 13.6413C7.39665 13.5133 7.33287 13.3551 7.33332 13.1666L7.33332 5.71665L4.06665 8.98331C3.93332 9.11665 3.77776 9.18331 3.59998 9.18331C3.42221 9.18331 3.26665 9.11665 3.13332 8.98331C2.99998 8.84998 2.93332 8.69153 2.93332 8.50798C2.93332 8.32442 2.99998 8.1662 3.13332 8.03331L7.53332 3.63331C7.59999 3.56665 7.67221 3.51931 7.74998 3.49131C7.82776 3.46331 7.9111 3.44953 7.99998 3.44998Z" fill="#42A0F0"/>
</svg>
