<svg width="32" height="32" viewBox="0 0 32 32" fill="none" xmlns="http://www.w3.org/2000/svg">
<path opacity="0.4" d="M21.588 2.66663H10.4133C6.36 2.66663 4 5.03996 4 9.10663V22.88C4 27.0133 6.36 29.3333 10.4133 29.3333H21.588C25.7067 29.3333 28 27.0133 28 22.88V9.10663C28 5.03996 25.7067 2.66663 21.588 2.66663Z" fill="#637381"/>
<path fill-rule="evenodd" clip-rule="evenodd" d="M10.7733 8.86658V8.87991C10.1987 8.87991 9.73334 9.34658 9.73334 9.91991C9.73334 10.4932 10.1987 10.9599 10.7733 10.9599H14.7587C15.3333 10.9599 15.8 10.4932 15.8 9.90524C15.8 9.33324 15.3333 8.86658 14.7587 8.86658H10.7733ZM21.2267 16.9866H10.7733C10.1987 16.9866 9.73334 16.5199 9.73334 15.9466C9.73334 15.3732 10.1987 14.9052 10.7733 14.9052H21.2267C21.8 14.9052 22.2667 15.3732 22.2667 15.9466C22.2667 16.5199 21.8 16.9866 21.2267 16.9866ZM21.2267 23.0799H10.7733C10.3733 23.1332 9.98668 22.9332 9.77334 22.5999C9.56001 22.2532 9.56001 21.8132 9.77334 21.4799C9.98668 21.1332 10.3733 20.9466 10.7733 20.9866H21.2267C21.7587 21.0399 22.16 21.4932 22.16 22.0399C22.16 22.5719 21.7587 23.0266 21.2267 23.0799Z" fill="#637381"/>
</svg>
