<svg width="34" height="34" viewBox="0 0 34 34" fill="none" xmlns="http://www.w3.org/2000/svg">
<path d="M16.6734 15.1398C13.5671 14.3325 12.5681 13.4978 12.5681 12.1978C12.5681 10.7062 13.9502 9.66624 16.2628 9.66624C18.206 9.66624 19.1775 10.4052 19.5333 11.582C19.6975 12.1294 20.1491 12.5399 20.7238 12.5399H21.1343C22.0375 12.5399 22.6806 11.6504 22.3659 10.802C21.7912 9.1873 20.4501 7.84626 18.3154 7.32627V6.38207C18.3154 5.2463 17.3986 4.32947 16.2628 4.32947C15.1271 4.32947 14.2102 5.2463 14.2102 6.38207V7.28522C11.5555 7.85995 9.42082 9.58414 9.42082 12.2252C9.42082 15.3862 12.0345 16.9598 15.8523 17.8767C19.2733 18.6977 19.9575 19.9019 19.9575 21.1745C19.9575 22.1187 19.287 23.6239 16.2628 23.6239C14.005 23.6239 12.8418 22.8166 12.3903 21.6671C12.185 21.1335 11.7197 20.7503 11.1587 20.7503H10.7755C9.85871 20.7503 9.21556 21.6808 9.55766 22.5292C10.3377 24.4313 12.1576 25.5534 14.2102 25.9913V26.9081C14.2102 28.0439 15.1271 28.9607 16.2628 28.9607C17.3986 28.9607 18.3154 28.0439 18.3154 26.9081V26.0187C20.9838 25.5123 23.1048 23.966 23.1048 21.1608C23.1048 17.2746 19.7796 15.9472 16.6734 15.1398Z" fill="#637381"/>
</svg>
