<svg width="34" height="34" viewBox="0 0 34 34" fill="none" xmlns="http://www.w3.org/2000/svg">
<path d="M9.28399 12.8136H9.55767C10.6113 12.8136 11.4734 13.6757 11.4734 14.7293V24.3082C11.4734 25.3618 10.6113 26.2239 9.55767 26.2239H9.28399C8.23032 26.2239 7.36823 25.3618 7.36823 24.3082V14.7293C7.36823 13.6757 8.23032 12.8136 9.28399 12.8136ZM16.947 7.06628C18.0007 7.06628 18.8628 7.92838 18.8628 8.98205V24.3082C18.8628 25.3618 18.0007 26.2239 16.947 26.2239C15.8934 26.2239 15.0313 25.3618 15.0313 24.3082V8.98205C15.0313 7.92838 15.8934 7.06628 16.947 7.06628ZM24.6101 18.0135C25.6638 18.0135 26.5259 18.8756 26.5259 19.9293V24.3082C26.5259 25.3618 25.6638 26.2239 24.6101 26.2239C23.5564 26.2239 22.6943 25.3618 22.6943 24.3082V19.9293C22.6943 18.8756 23.5564 18.0135 24.6101 18.0135Z" fill="#637381"/>
</svg>
