<svg width="18" height="18" viewBox="0 0 18 18" fill="none" xmlns="http://www.w3.org/2000/svg">
<path d="M7.7475 5.63232C8.1225 5.51982 8.535 5.44482 9 5.44482C11.07 5.44482 12.75 7.12482 12.75 9.19482C12.75 11.2648 11.07 12.9448 9 12.9448C6.93 12.9448 5.25 11.2648 5.25 9.19482C5.25 8.42232 5.4825 7.70983 5.88 7.10983" stroke="white" stroke-width="1.2" stroke-linecap="round" stroke-linejoin="round"/>
<path d="M7.21497 5.73743L8.45997 4.30493" stroke="white" stroke-width="1.2" stroke-linecap="round" stroke-linejoin="round"/>
<path d="M7.21497 5.73755L8.66997 6.80255" stroke="white" stroke-width="1.2" stroke-linecap="round" stroke-linejoin="round"/>
<path d="M6.75 16.5H11.25C15 16.5 16.5 15 16.5 11.25V6.75C16.5 3 15 1.5 11.25 1.5H6.75C3 1.5 1.5 3 1.5 6.75V11.25C1.5 15 3 16.5 6.75 16.5Z" stroke="white" stroke-width="1.2" stroke-linecap="round" stroke-linejoin="round"/>
</svg>
