<svg width="17" height="16" viewBox="0 0 17 16" fill="none" xmlns="http://www.w3.org/2000/svg">
<path d="M4.57544 2.94407L13.5559 11.9246C14.3989 10.8405 14.9 9.47928 14.9 8C14.9 4.46538 12.0346 1.6 8.5 1.6C7.02072 1.6 5.65951 2.10115 4.57544 2.94407ZM12.4246 13.0559L3.44407 4.07544C2.60115 5.15951 2.1 6.52072 2.1 8C2.1 11.5346 4.96538 14.4 8.5 14.4C9.97928 14.4 11.3405 13.8989 12.4246 13.0559ZM2.84314 2.34314C4.28998 0.896304 6.29108 0 8.5 0C12.9182 0 16.5 3.58172 16.5 8C16.5 10.2089 15.6037 12.21 14.1569 13.6569C12.71 15.1037 10.7089 16 8.5 16C4.08172 16 0.5 12.4182 0.5 8C0.5 5.79108 1.3963 3.78998 2.84314 2.34314Z" fill="#000"/>
</svg>
